#!OML:ASF F:\VICON\USERDATA\INSTALL\rory3\rory3.ASF
:FULLY-SPECIFIED
:DEGREES
71
root -0.3962995673990556 17.698490811548417 45.70674671414099 -1.2283919346299732 -5.766859764056697 -7.201439758530847
lfemur -30.81652643042201 -6.936886494592731 -6.722374058129162
ltibia 45.18014846380236
lfoot -4.131144206017821 7.368773337318424
ltoes -11.29764115581833
rfemur 5.1375228345535575 5.474339894917722 38.34000764165232
rtibia 34.11981716911506
rfoot -17.835082928859563 -1.8762894854325038
rtoes 16.23174045145911
lowerback nan 1.5729545573570038 7.293335084623425
upperback -0.38356784664611887 3.791987904335242 2.236629969778498
thorax -6.084479199300432 1.5277591697209818 -2.348770096179031
lowerneck -16.623327464519704 -3.399533848639384 -1.7799407305269543
upperneck 19.590967683174632 -4.672749185464584 2.159870333759873
head 8.84718169951283 -2.1164666171165796 0.4366352280000538
lclavicle -5.320358117505581e-15 -1.7678086791639255e-14
lhumerus -40.23113482413409 9.472222841914327 80.30156743218693
lradius 13.87781357101498
lwrist 3.662218836419812
lhand -33.86531332507542 10.949819398804884
lfingers nan
lthumb -6.830238732890424 41.280384382367735
rclavicle -4.812096796042538e-15 -1.6494273024694364e-14
rhumerus -15.921516928731341 -5.302191887203486 -83.98100406637532
rradius 32.07624456582639
rwrist -1.714383436497636
rhand -19.348976829300856 nan
rfingers nan
rthumb 6.6588383964093705 -8.795034883805668
72
root -0.3680598508253684 17.660014156413933 45.65103876088284 -1.1264688741582576 -6.569902425674147 -7.40374002275547
lfemur -28.297324351732996 -10.171368583794917 -5.327761104691449
ltibia 35.86679570548158
lfoot -4.424256496264755 9.074551711727722
ltoes -11.76010778105464
rfemur 7.372759465191816 5.254899227346755 38.00513629540601
rtibia 32.9314682768125
rfoot -17.886501247773587 -1.3657200441156974
rtoes 7.362187038354523
lowerback nan 1.9193459441233967 7.612889866164123
upperback -0.30196878959799067 4.09120399260199 2.203122363090819
thorax -5.880355222005083 1.7058658064624854 -2.4989323769283773
lowerneck -16.412878077497492 -3.444134760558422 -1.715651714491973
upperneck 19.46711544519466 -4.724344030872203 2.2201846849393716
head 8.76038650745285 -2.1298102470624745 0.4513910856093589
lclavicle -1.0150295247888586e-14 -1.900984430078549e-15
lhumerus -40.26695442419218 11.677864422884548 78.94935697725414
lradius 12.869457733767083
lwrist 0.4926828801920715
lhand -27.213231810839684 15.484705383648123
lfingers nan
lthumb -0.34440006783436106 46.03406220127371
rclavicle -9.593042324231606e-15 -6.977679103254097e-16
rhumerus -15.615025760904722 -5.250953898752689 -83.85045740327348
rradius 32.308737807987264
rwrist -1.8648096095940199
rhand -19.556098982772316 nan
rfingers nan
rthumb 6.501359087358724 -7.709362834447462
73
root -0.33204041089139147 17.62372266073086 46.092466778245054 -1.121217463673156 -6.614748593904981 -6.7983903251812645
lfemur -27.880343638027647 -8.053349169652675 -7.122260629848453
ltibia 35.468192761679084
lfoot -3.1169150414785864 4.649960834914185
ltoes -16.456641238874585
rfemur 8.624086792374719 4.849501787735256 36.41000877212576
rtibia 34.08490587807105
rfoot -16.857394588681203 1.089870031621432
rtoes 7.39196975817551
lowerback nan 1.9556773835288113 7.351001893038706
upperback -0.4071060705467131 3.906352964486265 1.8743454125626506
thorax -5.933961780206468 1.6638039479718305 -2.5216153228278584
lowerneck -16.41987206226665 -3.3548204803986743 -1.373269469863325
upperneck 19.685714283960607 -4.640815067387221 2.2038039674979752
head 8.85346002159452 -2.065159575066155 0.41342441435166594
lclavicle -2.488711309807473e-14 5.780651999001567e-17
lhumerus -40.95188599455136 11.590653172561334 78.86614271187356
lradius 12.667827870790155
lwrist 3.1408653143420437
lhand -26.768667477204758 20.274594639551392
lfingers nan
lthumb 0.1320710096270863 50.94090800230919
rclavicle -2.4293579539641992e-14 1.6740983215080528e-15
rhumerus -16.031865342670702 -5.507717891800848 -83.84323915819441
rradius 32.45184132933143
rwrist -1.5938765718022463
rhand -18.91297709073906 nan
rfingers nan
rthumb 7.117121459931371 -7.637475324932593
74
root -0.27825946769757626 17.59659781990358 46.57068439064257 -1.8132422198333082 -6.509769317237469 -6.732245540463508
lfemur -29.424983371505824 -6.26829998068915 -8.53443302959245
ltibia 44.05322714491107
lfoot -2.3834364028900303 1.3950753598754648
ltoes -17.051785509054053
rfemur 10.153781544649668 5.3800389655169285 36.2317157529939
rtibia 36.536299153039764
rfoot -14.669593336991237 1.2785904174203555
rtoes 1.0365252332681654
lowerback nan 1.9352830451784562 7.343203396338826
upperback -0.08900893940869466 3.741641663849019 1.9665976204017128
thorax -5.739228217225177 1.6341268511651297 -2.450704733039297
lowerneck -16.73571912345755 -3.552108771677254 -1.7322327544584906
upperneck 19.793959193670894 -4.803205010943511 2.217754581738265
head 8.935785880852013 -2.1554214124596363 0.4400717197097991
lclavicle 1.4173288993659012e-14 -2.4956871942131632e-14
lhumerus -40.799109262463446 13.09516151013985 78.0449220418307
lradius 12.081258140989675
lwrist 0.9638381790352479
lhand -27.817455988706048 14.69383748585883
lfingers nan
lthumb -0.8712906563746896 45.5255971710856
rclavicle 1.47602585734123e-14 -2.3467175141649613e-14
rhumerus -16.644891043013196 -6.779772058940468 -83.61467799416052
rradius 32.42199914612033
rwrist -0.5072348144383199
rhand -18.439035939577245 nan
rfingers nan
rthumb 7.553204669042404 -7.9296345337348075
